<svg version="1.2" xmlns="http://www.w3.org/2000/svg" viewBox="0 0 28 28" width="28" height="28">
	<title>noun-heat-5073478</title>
	<style>
		.s0 { fill: #000000 } 
	</style>
	<path class="s0" d="m16.5 25.7q-0.6 0.2-1.2 0.2-0.7 0.1-1.3 0.1-0.6 0-1.2-0.1-0.7 0-1.3-0.2-0.4 0-0.7 0.2-0.4 0.2-0.5 0.6 0 0.4 0.2 0.8 0.2 0.3 0.6 0.4 0.7 0.2 1.5 0.3 0.7 0.1 1.4 0.1 0.8 0 1.5-0.1 0.7-0.1 1.5-0.3 0.4-0.1 0.6-0.4 0.2-0.4 0.1-0.8 0-0.4-0.4-0.6-0.3-0.2-0.7-0.1z"/>
	<path class="s0" d="m14 4c-4 0-7.7 2.4-9.2 6.2-1.6 3.7-0.7 8 2.1 10.9 2.9 2.8 7.2 3.7 10.9 2.1 3.8-1.5 6.2-5.2 6.2-9.2 0-1.3-0.3-2.6-0.8-3.8-0.5-1.2-1.2-2.3-2.1-3.3-1-0.9-2.1-1.6-3.3-2.1-1.2-0.5-2.5-0.8-3.8-0.8zm0 18c-3.2 0-6.2-1.9-7.4-4.9-1.2-3-0.5-6.5 1.7-8.8 2.3-2.2 5.8-2.9 8.8-1.7 3 1.2 4.9 4.2 4.9 7.4q0 1.6-0.6 3.1-0.6 1.4-1.7 2.6-1.2 1.1-2.6 1.7-1.5 0.6-3.1 0.6z"/>
	<path class="s0" d="m11.5 2.3q0.6-0.2 1.2-0.2 0.7-0.1 1.3-0.1 0.6 0 1.2 0.1 0.7 0 1.3 0.2 0 0 0 0 0.1 0 0.1 0 0 0 0 0 0.1 0 0.1 0 0.2 0 0.3-0.1 0.2 0 0.3-0.2 0.2-0.1 0.3-0.2 0.1-0.2 0.1-0.3 0-0.2 0-0.4 0-0.2-0.2-0.4-0.1-0.2-0.2-0.3-0.2-0.1-0.4-0.1-0.7-0.2-1.4-0.3-0.8 0-1.5 0-0.7 0-1.5 0-0.7 0.1-1.4 0.3-0.4 0.1-0.6 0.4-0.2 0.4-0.1 0.7 0.1 0.4 0.4 0.7 0.3 0.2 0.7 0.1z"/>
	<path class="s0" d="m2.5 7.8q0.1 0 0.2 0 0 0.1 0.1 0.1 0.1 0 0.1 0 0.1 0 0.2 0 0.1 0 0.2 0 0.1 0 0.3-0.1 0.1 0 0.2-0.1 0.1-0.1 0.1-0.2 0.2-0.3 0.4-0.6 0.2-0.2 0.4-0.5 0.2-0.2 0.4-0.5 0.2-0.2 0.4-0.4 0.2-0.2 0.5-0.5 0.2-0.2 0.5-0.4 0.2-0.2 0.5-0.4 0.2-0.1 0.5-0.3 0.2-0.1 0.3-0.3 0.1-0.2 0.1-0.3 0.1-0.2 0.1-0.4-0.1-0.2-0.2-0.4-0.1-0.2-0.3-0.3-0.1-0.1-0.3-0.1-0.2-0.1-0.4 0-0.2 0-0.4 0.1-0.6 0.4-1.2 0.9-0.6 0.4-1.1 1-0.5 0.5-1 1.1-0.5 0.6-0.9 1.2-0.1 0.2-0.1 0.4 0 0.1 0 0.3 0 0.2 0.2 0.4 0.1 0.2 0.2 0.3z"/>
	<path class="s0" d="m2.3 16.5q-0.2-0.6-0.2-1.2-0.1-0.7-0.1-1.3 0-0.6 0.1-1.2 0-0.7 0.2-1.3 0-0.2 0-0.4-0.1-0.2-0.2-0.4-0.1-0.1-0.2-0.2-0.2-0.2-0.4-0.2-0.2 0-0.4 0-0.2 0-0.4 0.1-0.1 0.1-0.2 0.3-0.1 0.2-0.2 0.4-0.1 0.7-0.2 1.4-0.1 0.8-0.1 1.5 0 0.7 0.1 1.5 0.1 0.7 0.2 1.4 0 0.2 0.1 0.3 0.1 0.2 0.3 0.3 0.1 0.1 0.3 0.2 0.1 0 0.3 0 0 0 0.1 0 0 0 0 0 0 0 0.1 0 0 0 0 0 0.2 0 0.4-0.1 0.1-0.2 0.2-0.3 0.1-0.2 0.2-0.4 0-0.2 0-0.4z"/>
	<path class="s0" d="m7.5 24.1q-0.3-0.2-0.6-0.4-0.2-0.2-0.5-0.4-0.2-0.2-0.5-0.4-0.2-0.2-0.4-0.4-0.2-0.2-0.5-0.5-0.2-0.2-0.4-0.5-0.2-0.2-0.4-0.5-0.1-0.2-0.3-0.5-0.1-0.2-0.3-0.3-0.1-0.1-0.3-0.2-0.2 0-0.4 0-0.2 0.1-0.4 0.2-0.2 0.1-0.3 0.3-0.1 0.1-0.1 0.3-0.1 0.2 0 0.4 0 0.2 0.1 0.4 0.4 0.6 0.9 1.2 0.4 0.5 1 1.1 0.5 0.5 1.1 0.9 0.5 0.5 1.2 0.9 0 0.1 0.1 0.1 0.1 0 0.1 0 0.1 0.1 0.2 0.1 0 0 0.1 0 0.1 0 0.3-0.1 0.1 0 0.2 0 0.1-0.1 0.2-0.2 0.1-0.1 0.2-0.2 0-0.1 0.1-0.3 0-0.2 0-0.4-0.1-0.2-0.2-0.3-0.1-0.2-0.2-0.3z"/>
	<path class="s0" d="m25.5 20.2q-0.2-0.1-0.4-0.1-0.2-0.1-0.4 0-0.2 0-0.3 0.1-0.2 0.2-0.3 0.3-0.2 0.3-0.4 0.6-0.2 0.2-0.4 0.5-0.2 0.2-0.4 0.5-0.2 0.2-0.4 0.4-0.2 0.2-0.5 0.5-0.2 0.2-0.5 0.4-0.2 0.2-0.5 0.4-0.2 0.1-0.5 0.3-0.2 0.1-0.3 0.3-0.1 0.2-0.1 0.3-0.1 0.2-0.1 0.4 0.1 0.2 0.2 0.4 0.1 0.1 0.1 0.2 0.1 0.1 0.3 0.1 0.1 0.1 0.2 0.1 0.1 0.1 0.2 0.1 0.1 0 0.2-0.1 0 0 0.1 0 0.1 0 0.2 0 0-0.1 0.1-0.1 0.6-0.4 1.2-0.9 0.5-0.4 1.1-1 0.5-0.5 1-1.1 0.4-0.5 0.8-1.2 0.1-0.1 0.2-0.3 0-0.2 0-0.4 0-0.2-0.2-0.4-0.1-0.2-0.2-0.3z"/>
	<path class="s0" d="m27.7 11.1q-0.1-0.2-0.2-0.4-0.1-0.2-0.2-0.3-0.2-0.1-0.4-0.1-0.2 0-0.4 0-0.2 0-0.4 0.2-0.1 0.1-0.2 0.2-0.1 0.2-0.2 0.4 0 0.2 0 0.4 0.2 0.6 0.2 1.2 0.1 0.7 0.1 1.3 0 0.6-0.1 1.2 0 0.7-0.2 1.3 0 0.2 0 0.4 0.1 0.2 0.2 0.3 0.1 0.2 0.2 0.3 0.2 0.1 0.4 0.2 0 0 0.1 0 0 0 0 0 0 0 0.1 0 0 0 0 0 0.2 0 0.3-0.1 0.2 0 0.4-0.2 0.1-0.1 0.2-0.2 0.1-0.2 0.1-0.3 0.2-0.8 0.2-1.5 0.1-0.7 0.1-1.5 0-0.7-0.1-1.4 0-0.8-0.2-1.5z"/>
	<path class="s0" d="m20.5 3.9q0.3 0.2 0.6 0.4 0.2 0.2 0.5 0.4 0.2 0.2 0.5 0.4 0.2 0.2 0.4 0.4 0.2 0.2 0.5 0.5 0.2 0.2 0.4 0.5 0.2 0.2 0.4 0.5 0.1 0.2 0.3 0.5 0.1 0.1 0.2 0.2 0.1 0.1 0.2 0.2 0.1 0 0.2 0 0.1 0.1 0.2 0.1 0.1 0 0.2 0 0.1 0 0.1-0.1 0.1 0 0.2 0 0 0 0.1-0.1 0.2-0.1 0.3-0.3 0.1-0.1 0.1-0.3 0.1-0.2 0-0.4 0-0.2-0.1-0.4-0.4-0.6-0.9-1.2-0.4-0.5-1-1.1-0.5-0.5-1.1-0.9-0.5-0.5-1.2-0.9-0.1-0.1-0.3-0.2-0.2 0-0.4 0-0.2 0.1-0.4 0.2-0.1 0.1-0.3 0.3 0 0.1-0.1 0.3 0 0.2 0 0.4 0.1 0.2 0.2 0.3 0.1 0.2 0.2 0.3z"/>
</svg>